<svg version="1.1" id="Layer_1" xmlns="http://www.w3.org/2000/svg" xmlns:xlink="http://www.w3.org/1999/xlink" x="0px" y="0px" width="100%" viewBox="0 0 366 285" enable-background="new 0 0 366 285" xml:space="preserve">
<path fill="#FEFEFF" opacity="1.000000" stroke="none" d=" M1.000001,265.000000   C1.000000,177.068298 1.000000,89.136604 1.000000,1.000000   C100.687469,1.000000 200.375076,1.000000 300.531342,1.468657   C301.000031,21.875227 301.106964,41.814182 300.912018,61.750187   C300.871887,65.855980 302.000885,67.133156 306.190277,67.091026   C326.458435,66.887230 346.729797,66.999664 367.000000,67.000000   C367.000000,139.878845 367.000000,212.757690 367.000000,286.000000   C352.314423,286.000000 337.625885,286.000000 322.469177,285.763519   C322.001068,285.527039 322.004150,285.054077 322.301331,284.873627   C330.030029,281.913757 334.183777,276.188660 336.850037,269.037781   C337.805450,266.475342 337.613617,264.554321 335.682465,262.327148   C326.657990,251.919281 317.896332,241.283829 308.909241,230.842957   C307.560577,229.276108 305.515289,228.308823 303.868713,227.119415   C304.527557,225.603287 305.305573,223.812820 306.311157,221.679337   C306.634399,203.794815 306.749573,186.253342 306.747375,168.711868   C306.747284,168.076324 305.592773,167.440918 304.510498,166.771851   C298.797913,166.738251 293.551147,166.738251 287.990051,166.738251   C287.990051,180.489853 288.001770,193.463150 287.985992,206.436401   C287.975250,215.271439 285.220245,217.995056 276.285767,217.995728   C204.640411,218.001190 132.995056,218.000961 61.349705,217.996475   C52.112419,217.995895 49.442936,215.342529 49.440544,206.101273   C49.429562,163.613907 49.431847,121.126549 49.438988,78.639183   C49.440525,69.480217 52.117546,66.840935 61.383133,66.839653   C100.538155,66.834236 139.693176,66.837189 178.848190,66.837090   C180.793106,66.837082 182.738022,66.837090 184.861389,66.837090   C184.861389,62.620605 184.861389,59.038795 184.861389,55.143120   C182.995239,55.058811 181.374161,54.922009 179.753036,54.921593   C134.266571,54.909920 88.780098,54.906296 43.293629,54.916801   C34.340523,54.918873 30.993704,58.303249 30.992638,67.311905   C30.986736,117.130424 30.949306,166.949051 31.075064,216.767242   C31.084204,220.387817 32.301468,224.005325 32.935368,227.504654   C22.536606,239.713852 11.768305,252.356934 1.000001,265.000000  M209.715897,101.923218   C209.715897,111.512558 209.715897,121.101891 209.715897,130.712219   C220.383087,130.712219 230.453171,130.712219 240.627594,130.712219   C240.627594,120.347885 240.627594,110.274742 240.627594,100.036224   C230.568283,100.036224 220.780975,100.036224 210.371780,99.972557   C210.229889,100.318840 210.088013,100.665123 209.715897,101.923218  M247.325775,90.805489   C261.722992,90.805489 276.120178,90.805489 290.587830,90.805489   C290.587830,75.978111 290.587830,61.594704 290.587830,47.037731   C276.192749,47.037731 262.092255,47.037731 247.366135,46.993507   C247.210434,47.337959 247.054749,47.682411 246.669617,48.937546   C246.745590,62.283722 246.821548,75.629898 246.750336,89.502388   C246.811127,89.674103 246.871933,89.845825 247.325775,90.805489  M332.026306,99.727882   C315.368317,99.775177 298.710358,99.822472 281.471649,99.958374   C281.327911,100.300720 281.184204,100.643059 280.907410,101.916809   C280.907410,119.124229 280.907410,136.331650 280.907410,153.568085   C299.328064,153.568085 316.892975,153.568085 334.598694,153.568085   C334.761261,152.680969 334.975616,152.054321 334.976440,151.427368   C334.998505,135.121109 335.013214,118.814796 334.960938,102.508705   C334.958160,101.635612 334.360107,100.764427 333.496246,99.792473   C333.313965,99.817513 333.131653,99.842552 332.026306,99.727882  M286.504028,9.816320   C286.414124,8.376925 286.324219,6.937532 286.240265,5.593373   C275.720978,5.593373 265.645660,5.593373 255.553146,5.593373   C255.553146,16.076893 255.553146,26.252804 255.553146,36.400665   C266.000641,36.400665 276.052856,36.400665 286.504578,36.400665   C286.504578,27.649162 286.504578,19.200768 286.504028,9.816320  M113.048111,109.544151   C107.218285,107.214851 101.388458,104.885551 95.176498,102.403572   C95.176498,107.577003 95.176498,112.167953 95.176498,116.969627   C101.733078,119.394798 108.320152,121.831261 115.931747,124.646675   C108.254387,127.487091 101.622826,129.940598 95.215546,132.311127   C95.215546,137.340744 95.215546,141.916718 95.215546,146.919861   C108.356606,141.600754 121.133850,136.445511 133.896286,131.253830   C138.234436,129.489090 135.634186,125.739288 135.902939,122.964935   C136.060272,121.340790 134.903656,118.603363 133.583313,117.989014   C127.111687,114.977837 120.386604,112.511391 113.048111,109.544151  M198.068939,81.454651   C198.068939,84.524574 198.068939,87.594505 198.068939,90.619347   C208.843033,90.619347 218.745956,90.619347 228.842697,90.619347   C228.842697,80.295158 228.842697,70.280716 228.842697,60.200417   C218.469009,60.200417 208.462738,60.200417 198.069016,60.200417   C198.069016,67.231461 198.069016,73.850281 198.068939,81.454651  M268.663391,164.038574   C268.772705,155.072845 268.993042,146.105255 268.844086,137.143814   C268.826416,136.081284 266.816559,134.183243 265.683075,134.147034   C257.543854,133.887070 249.388519,133.886963 241.249542,134.150833   C240.137604,134.186905 238.188904,136.113678 238.152939,137.214859   C237.887177,145.353745 237.887436,153.509094 238.145416,161.648438   C238.181686,162.792435 240.057785,164.823090 241.110168,164.841415   C250.072723,164.997513 259.041748,164.782990 268.663391,164.038574  M175.149689,161.488663   C175.149689,156.206192 175.149689,150.923706 175.149689,145.508850   C165.415604,145.508850 156.210403,145.508850 146.982727,145.508850   C146.982727,155.085846 146.982727,164.335022 146.982727,173.573059   C156.426117,173.573059 165.539032,173.573059 175.149719,173.573059   C175.149719,169.725601 175.149719,166.103195 175.149689,161.488663  M84.667473,111.500137   C84.667473,101.063232 84.667473,90.626335 84.667473,80.287384   C81.768013,80.287384 79.526436,80.287384 77.236877,80.287384   C77.236877,109.706276 77.236877,138.801453 77.236877,168.091782   C79.701843,168.091782 81.960732,168.091782 84.667450,168.091782   C84.667450,149.400314 84.667450,130.950226 84.667473,111.500137  M165.001831,127.455711   C165.092194,139.393341 163.648895,137.900009 175.770630,137.998322   C176.769821,138.006424 177.769135,137.999374 178.768402,137.999374   C190.999390,137.999374 190.999374,137.999390 190.999374,125.780113   C190.999374,112.999084 190.999390,112.999092 178.330734,112.999092   C165.001831,112.999092 165.001831,112.999084 165.001831,127.455711  M199.532181,143.811462   C196.769424,143.811462 194.006668,143.811462 191.201233,143.811462   C191.201233,152.535965 191.201233,160.602753 191.201233,168.855438   C199.540649,168.855438 207.606873,168.855438 215.816513,168.855438   C215.816513,160.433456 215.816513,152.249741 215.816513,143.811386   C210.474915,143.811386 205.499954,143.811386 199.532181,143.811462  z"/>
<path fill="#3C9CDC" opacity="1.000000" stroke="none" d=" M306.083618,222.022369   C305.305573,223.812820 304.527557,225.603287 303.868713,227.119415   C305.515289,228.308823 307.560577,229.276108 308.909241,230.842957   C317.896332,241.283829 326.657990,251.919281 335.682465,262.327148   C337.613617,264.554321 337.805450,266.475342 336.850037,269.037781   C334.183777,276.188660 330.030029,281.913757 321.833618,284.836365   C239.682266,284.977661 158.295883,284.969452 76.909485,284.978394   C57.271744,284.980560 37.634010,285.039368 17.671101,284.923340   C10.528719,282.972504 6.241331,278.409912 3.435805,272.158752   C2.781835,270.701630 1.820125,269.382568 1.000003,268.000000   C1.000000,267.250000 1.000000,266.500000 1.000001,265.375000   C11.768305,252.356934 22.536606,239.713852 32.935368,227.504654   C32.301468,224.005325 31.084204,220.387817 31.075064,216.767242   C30.949306,166.949051 30.986736,117.130424 30.992638,67.311905   C30.993704,58.303249 34.340523,54.918873 43.293629,54.916801   C88.780098,54.906296 134.266571,54.909920 179.753036,54.921593   C181.374161,54.922009 182.995239,55.058811 184.861389,55.143120   C184.861389,59.038795 184.861389,62.620605 184.861389,66.837090   C182.738022,66.837090 180.793106,66.837082 178.848190,66.837090   C139.693176,66.837189 100.538155,66.834236 61.383133,66.839653   C52.117546,66.840935 49.440525,69.480217 49.438988,78.639183   C49.431847,121.126549 49.429562,163.613907 49.440544,206.101273   C49.442936,215.342529 52.112419,217.995895 61.349705,217.996475   C132.995056,218.000961 204.640411,218.001190 276.285767,217.995728   C285.220245,217.995056 287.975250,215.271439 287.985992,206.436401   C288.001770,193.463150 287.990051,180.489853 287.990051,166.738251   C293.551147,166.738251 298.797913,166.738251 304.542603,167.253754   C305.047028,184.139618 305.023407,200.510101 305.104828,216.880066   C305.113373,218.595749 305.742432,220.308350 306.083618,222.022369  M123.703125,258.061218   C122.017815,260.636871 120.332504,263.212555 118.335518,266.264557   C152.796829,266.264557 186.358643,266.264557 220.585373,266.264557   C218.720749,263.407227 217.047348,261.306671 215.882080,258.954407   C213.869400,254.891602 210.935440,253.659775 206.362961,253.704391   C181.225174,253.949707 156.083435,253.881912 130.943970,253.746704   C127.733803,253.729431 125.453842,254.443802 123.703125,258.061218  M175.499680,270.915771   C165.857269,270.916901 156.214844,270.929321 146.572464,270.912476   C143.593338,270.907288 140.706406,271.802368 141.270874,275.139008   C141.542282,276.743347 144.473633,279.035645 146.239334,279.070923   C161.694260,279.379944 177.160522,279.379059 192.615601,279.073792   C194.415634,279.038269 197.393692,276.822296 197.686432,275.225098   C198.287582,271.945160 195.478928,270.899628 192.459137,270.912689   C187.139297,270.935669 181.819275,270.916962 175.499680,270.915771  z"/>
<path fill="#F4F6FC" opacity="1.000000" stroke="none" d=" M367.000000,66.531342   C346.729797,66.999664 326.458435,66.887230 306.190277,67.091026   C302.000885,67.133156 300.871887,65.855980 300.912018,61.750187   C301.106964,41.814182 301.000031,21.875227 301.000000,1.468657   C322.354218,1.000000 343.708466,1.000000 365.640015,1.218565   C366.419159,1.706907 366.680023,1.894531 367.000000,2.000000   C367.000000,23.354227 367.000000,44.708454 367.000000,66.531342  z"/>
<path fill="#F3F9FD" opacity="1.000000" stroke="none" d=" M17.996275,285.072113   C37.634010,285.039368 57.271744,284.980560 76.909485,284.978394   C158.295883,284.969452 239.682266,284.977661 321.536407,285.016815   C322.004150,285.054077 322.001068,285.527039 322.000549,285.763519   C220.979111,286.000000 119.958206,286.000000 18.468319,285.768036   C17.999321,285.536072 17.996275,285.072113 17.996275,285.072113  z"/>
<path fill="#F9FCFE" opacity="1.000000" stroke="none" d=" M17.671101,284.923340   C17.996275,285.072113 17.999321,285.536072 17.999660,285.768036   C12.405509,286.000000 6.811018,286.000000 1.000000,286.000000   C1.000000,280.314392 1.000000,274.626923 1.000003,268.469727   C1.820125,269.382568 2.781835,270.701630 3.435805,272.158752   C6.241331,278.409912 10.528719,282.972504 17.671101,284.923340  z"/>
<path fill="#FEFEFF" opacity="1.000000" stroke="none" d=" M367.000000,1.500000   C366.680023,1.894531 366.419159,1.706907 366.108673,1.218565   C366.333344,1.000000 366.666656,1.000000 367.000000,1.500000  z"/>
<path fill="#5DB6F9" opacity="1.000000" stroke="none" d=" M282.052368,99.869781   C298.710358,99.822472 315.368317,99.775177 332.583130,99.987373   C333.439667,100.128693 333.739441,100.010521 334.039185,99.892349   C334.360107,100.764427 334.958160,101.635612 334.960938,102.508705   C335.013214,118.814796 334.998505,135.121109 334.976440,151.427368   C334.975616,152.054321 334.761261,152.680969 334.598694,153.568085   C316.892975,153.568085 299.328064,153.568085 280.907410,153.568085   C280.907410,136.331650 280.907410,119.124229 281.200897,101.325821   C281.680389,100.446472 281.866394,100.158127 282.052368,99.869781  z"/>
<path fill="#243EFF" opacity="1.000000" stroke="none" d=" M246.897507,88.976074   C246.821548,75.629898 246.745590,62.283722 247.016876,48.378357   C247.573334,47.558689 247.782562,47.298210 247.991776,47.037731   C262.092255,47.037731 276.192749,47.037731 290.587830,47.037731   C290.587830,61.594704 290.587830,75.978111 290.587830,90.805489   C276.120178,90.805489 261.722992,90.805489 247.304718,90.313522   C247.154953,89.539726 247.026230,89.257904 246.897507,88.976074  z"/>
<path fill="#1828A0" opacity="1.000000" stroke="none" d=" M286.504303,10.284348   C286.504578,19.200768 286.504578,27.649162 286.504578,36.400665   C276.052856,36.400665 266.000641,36.400665 255.553146,36.400665   C255.553146,26.252804 255.553146,16.076893 255.553146,5.593373   C265.645660,5.593373 275.720978,5.593373 286.240265,5.593373   C286.324219,6.937532 286.414124,8.376925 286.504303,10.284348  z"/>
<path fill="#050505" opacity="1.000000" stroke="none" d=" M113.399597,109.698303   C120.386604,112.511391 127.111687,114.977837 133.583313,117.989014   C134.903656,118.603363 136.060272,121.340790 135.902939,122.964935   C135.634186,125.739288 138.234436,129.489090 133.896286,131.253830   C121.133850,136.445511 108.356606,141.600754 95.215546,146.919861   C95.215546,141.916718 95.215546,137.340744 95.215546,132.311127   C101.622826,129.940598 108.254387,127.487091 115.931747,124.646675   C108.320152,121.831261 101.733078,119.394798 95.176498,116.969627   C95.176498,112.167953 95.176498,107.577003 95.176498,102.403572   C101.388458,104.885551 107.218285,107.214851 113.399597,109.698303  z"/>
<path fill="#5DB7F9" opacity="1.000000" stroke="none" d=" M198.068970,80.961876   C198.069016,73.850281 198.069016,67.231461 198.069016,60.200417   C208.462738,60.200417 218.469009,60.200417 228.842697,60.200417   C228.842697,70.280716 228.842697,80.295158 228.842697,90.619347   C218.745956,90.619347 208.843033,90.619347 198.068939,90.619347   C198.068939,87.594505 198.068939,84.524574 198.068970,80.961876  z"/>
<path fill="#F4F6FC" opacity="1.000000" stroke="none" d=" M268.336121,164.359039   C259.041748,164.782990 250.072723,164.997513 241.110168,164.841415   C240.057785,164.823090 238.181686,162.792435 238.145416,161.648438   C237.887436,153.509094 237.887177,145.353745 238.152939,137.214859   C238.188904,136.113678 240.137604,134.186905 241.249542,134.150833   C249.388519,133.886963 257.543854,133.887070 265.683075,134.147034   C266.816559,134.183243 268.826416,136.081284 268.844086,137.143814   C268.993042,146.105255 268.772705,155.072845 268.336121,164.359039  z"/>
<path fill="#14239E" opacity="1.000000" stroke="none" d=" M210.993652,100.036224   C220.780975,100.036224 230.568283,100.036224 240.627594,100.036224   C240.627594,110.274742 240.627594,120.347885 240.627594,130.712219   C230.453171,130.712219 220.383087,130.712219 209.715897,130.712219   C209.715897,121.101891 209.715897,111.512558 210.055847,101.364365   C210.683228,100.617584 210.882507,100.361153 210.993652,100.036224  z"/>
<path fill="#16259F" opacity="1.000000" stroke="none" d=" M175.149704,161.984726   C175.149719,166.103195 175.149719,169.725601 175.149719,173.573059   C165.539032,173.573059 156.426117,173.573059 146.982727,173.573059   C146.982727,164.335022 146.982727,155.085846 146.982727,145.508850   C156.210403,145.508850 165.415604,145.508850 175.149689,145.508850   C175.149689,150.923706 175.149689,156.206192 175.149704,161.984726  z"/>
<path fill="#141414" opacity="1.000000" stroke="none" d=" M84.667465,112.000145   C84.667450,130.950226 84.667450,149.400314 84.667450,168.091782   C81.960732,168.091782 79.701843,168.091782 77.236877,168.091782   C77.236877,138.801453 77.236877,109.706276 77.236877,80.287384   C79.526436,80.287384 81.768013,80.287384 84.667473,80.287384   C84.667473,90.626335 84.667473,101.063232 84.667465,112.000145  z"/>
<path fill="#F4F6FC" opacity="1.000000" stroke="none" d=" M165.001831,126.967163   C165.001831,112.999084 165.001831,112.999092 178.330734,112.999092   C190.999390,112.999092 190.999374,112.999084 190.999374,125.780113   C190.999374,137.999390 190.999390,137.999374 178.768402,137.999374   C177.769135,137.999374 176.769821,138.006424 175.770630,137.998322   C163.648895,137.900009 165.092194,139.393341 165.001831,126.967163  z"/>
<path fill="#233DFF" opacity="1.000000" stroke="none" d=" M200.028595,143.811432   C205.499954,143.811386 210.474915,143.811386 215.816513,143.811386   C215.816513,152.249741 215.816513,160.433456 215.816513,168.855438   C207.606873,168.855438 199.540649,168.855438 191.201233,168.855438   C191.201233,160.602753 191.201233,152.535965 191.201233,143.811462   C194.006668,143.811462 196.769424,143.811462 200.028595,143.811432  z"/>
<path fill="#5EADE2" opacity="1.000000" stroke="none" d=" M306.311157,221.679337   C305.742432,220.308350 305.113373,218.595749 305.104828,216.880066   C305.023407,200.510101 305.047028,184.139618 305.008362,167.287354   C305.592773,167.440918 306.747284,168.076324 306.747375,168.711868   C306.749573,186.253342 306.634399,203.794815 306.311157,221.679337  z"/>
<path fill="#4FB0F9" opacity="1.000000" stroke="none" d=" M333.767700,99.842407   C333.739441,100.010521 333.439667,100.128693 333.044617,100.057228   C333.131653,99.842552 333.313965,99.817513 333.767700,99.842407  z"/>
<path fill="#4FB0F9" opacity="1.000000" stroke="none" d=" M281.762024,99.914078   C281.866394,100.158127 281.680389,100.446472 281.267456,100.860107   C281.184204,100.643059 281.327911,100.300720 281.762024,99.914078  z"/>
<path fill="#071898" opacity="1.000000" stroke="none" d=" M210.682709,100.004395   C210.882507,100.361153 210.683228,100.617584 210.170975,100.908455   C210.088013,100.665123 210.229889,100.318840 210.682709,100.004395  z"/>
<path fill="#1531FF" opacity="1.000000" stroke="none" d=" M246.823914,89.239227   C247.026230,89.257904 247.154953,89.539726 247.108215,89.919556   C246.871933,89.845825 246.811127,89.674103 246.823914,89.239227  z"/>
<path fill="#1531FF" opacity="1.000000" stroke="none" d=" M247.678955,47.015617   C247.782562,47.298210 247.573334,47.558689 247.131592,47.923016   C247.054749,47.682411 247.210434,47.337959 247.678955,47.015617  z"/>
<path fill="#F8FBFE" opacity="1.000000" stroke="none" d=" M123.910767,257.742981   C125.453842,254.443802 127.733803,253.729431 130.943970,253.746704   C156.083435,253.881912 181.225174,253.949707 206.362961,253.704391   C210.935440,253.659775 213.869400,254.891602 215.882080,258.954407   C217.047348,261.306671 218.720749,263.407227 220.585373,266.264557   C186.358643,266.264557 152.796829,266.264557 118.335518,266.264557   C120.332504,263.212555 122.017815,260.636871 123.910767,257.742981  z"/>
<path fill="#FDFEFF" opacity="1.000000" stroke="none" d=" M175.999512,270.915741   C181.819275,270.916962 187.139297,270.935669 192.459137,270.912689   C195.478928,270.899628 198.287582,271.945160 197.686432,275.225098   C197.393692,276.822296 194.415634,279.038269 192.615601,279.073792   C177.160522,279.379059 161.694260,279.379944 146.239334,279.070923   C144.473633,279.035645 141.542282,276.743347 141.270874,275.139008   C140.706406,271.802368 143.593338,270.907288 146.572464,270.912476   C156.214844,270.929321 165.857269,270.916901 175.999512,270.915741  z"/>
</svg>