<svg version="1.1" id="Layer_1" xmlns="http://www.w3.org/2000/svg" xmlns:xlink="http://www.w3.org/1999/xlink" x="0px" y="0px"
	 width="100%" viewBox="0 0 430 80" enable-background="new 0 0 430 80" xml:space="preserve">
<path fill="#FDFDFD" opacity="1.000000" stroke="none" 
	d="
M316.000000,81.000000 
	C210.666672,81.000000 105.833359,81.000000 1.000028,81.000000 
	C1.000019,54.333347 1.000019,27.666698 1.000009,1.000035 
	C144.333298,1.000024 287.666595,1.000024 430.999939,1.000012 
	C430.999939,27.666632 430.999939,54.333263 430.999969,80.999947 
	C392.833344,81.000000 354.666656,81.000000 316.000000,81.000000 
M35.830750,65.664833 
	C39.569706,65.560753 43.308662,65.456673 47.805103,65.602379 
	C48.854820,65.526817 49.904537,65.451256 51.736889,65.649956 
	C58.128819,65.499733 64.520744,65.349518 71.480103,65.144371 
	C71.628754,65.025986 71.777405,64.907608 72.559578,64.417839 
	C72.165100,62.684086 72.333969,60.383408 71.268623,59.324791 
	C68.286697,56.361721 67.223671,53.078625 67.720688,49.031918 
	C67.901161,47.562538 67.901688,45.997013 67.569031,44.572323 
	C67.420074,43.934418 66.297157,43.284332 65.520340,43.133450 
	C65.130440,43.057716 64.198761,44.026474 64.085770,44.630234 
	C63.844662,45.918636 63.859806,47.287838 63.980648,48.604603 
	C64.273308,51.793655 63.018471,53.059174 59.716034,53.025841 
	C47.076584,52.898285 34.434532,52.909458 21.794754,53.019264 
	C18.703253,53.046120 17.717855,51.785599 17.773005,48.860275 
	C17.929703,40.548252 17.924835,32.233181 18.797245,23.703663 
	C27.073135,23.467085 35.349026,23.230509 43.624916,22.993933 
	C43.607788,22.484329 43.590656,21.974724 43.573524,21.465120 
	C35.071838,21.465120 26.570150,21.465120 17.285780,21.225885 
	C14.052976,20.994759 13.989707,23.169029 13.996231,25.480789 
	C14.019161,33.607037 13.824166,41.739204 14.085651,49.857086 
	C14.205520,53.578400 13.492997,56.574432 10.674003,59.140129 
	C8.956264,60.703522 7.321729,62.654778 10.523067,65.219345 
	C10.719191,65.224907 10.915314,65.230461 12.006804,65.473145 
	C18.352644,65.440613 24.698484,65.408081 31.807302,65.605827 
	C32.854557,65.521675 33.901814,65.437531 35.830750,65.664833 
M303.781403,56.144444 
	C310.214417,56.588337 315.291718,54.348030 318.078888,48.331295 
	C320.740326,42.586060 320.366119,36.808693 316.292328,31.890602 
	C310.918762,25.403345 304.017822,25.890484 296.434631,29.153191 
	C296.434631,24.487226 296.434631,20.386440 296.434631,16.349195 
	C293.539856,16.349195 291.127991,16.349195 288.713928,16.349195 
	C288.713928,29.522455 288.713928,42.398643 288.713928,56.284218 
	C291.553619,55.333588 293.746094,54.599625 296.602509,53.643387 
	C298.014923,54.182255 300.471649,55.119549 303.781403,56.144444 
M419.404663,43.903111 
	C421.534973,43.903111 423.665253,43.903111 425.758728,43.903111 
	C426.428375,34.590950 421.599976,28.068949 413.609924,27.004498 
	C404.958466,25.851933 397.541687,30.522930 396.035553,38.072659 
	C394.366943,46.436710 398.870850,53.938862 406.683105,55.808392 
	C414.831360,57.758320 422.672943,53.969006 425.093109,45.900909 
	C421.262329,46.999550 417.956177,47.632759 414.909546,48.893188 
	C409.991455,50.927887 405.592712,49.065842 404.423370,43.902431 
	C409.118286,43.902431 413.773254,43.902431 419.404663,43.903111 
M354.900482,38.927265 
	C353.984253,30.971888 350.436646,27.390726 343.009430,26.923748 
	C335.069489,26.424534 330.798309,29.131662 328.768738,37.180504 
	C332.361511,36.010437 335.448517,35.479137 338.044312,34.053429 
	C342.413605,31.653633 346.060242,33.339703 346.666534,38.862511 
	C344.835388,38.862511 343.042114,38.855110 341.248901,38.864571 
	C339.422241,38.874207 337.587616,38.797539 335.770538,38.939049 
	C330.694550,39.334358 327.460754,42.439606 327.257751,46.988125 
	C327.065308,51.301193 329.815704,55.196270 334.589600,55.549393 
	C338.831604,55.863167 343.180054,54.737076 347.931824,54.195175 
	C349.557800,54.603951 352.017761,55.222393 354.907196,55.948803 
	C354.907196,49.788906 354.907196,44.813568 354.900482,38.927265 
M208.688263,52.129299 
	C211.491119,44.215210 214.293976,36.301121 217.104721,28.364792 
	C213.712814,27.084969 212.234894,28.277885 211.294983,31.211319 
	C209.559174,36.628670 207.516464,41.947678 205.196411,48.441925 
	C202.590134,41.812771 200.533401,36.258842 198.177017,30.835100 
	C197.647797,29.617006 196.045563,28.066874 194.983719,28.101292 
	C193.906189,28.136223 192.445984,29.755915 191.917007,31.004961 
	C189.622467,36.422867 187.607010,41.958969 185.049850,48.594490 
	C182.752914,42.118954 180.682922,36.772892 178.984924,31.311182 
	C177.976990,28.069178 176.335907,27.043953 173.052444,28.419703 
	C175.945633,36.462273 178.734344,44.456081 181.753723,52.361794 
	C182.237839,53.629375 183.993805,55.516197 184.739532,55.339054 
	C186.111832,55.013081 187.683395,53.587765 188.269440,52.230839 
	C190.606934,46.818687 192.596939,41.256454 195.092636,34.769737 
	C197.673401,41.479107 199.758408,47.166279 202.093536,52.748829 
	C202.569199,53.886047 204.065338,55.443153 204.949097,55.356640 
	C206.155945,55.238503 207.226791,53.730877 208.688263,52.129299 
M388.099670,49.703060 
	C389.173065,44.460335 386.570435,41.456982 381.927246,39.862110 
	C379.420776,39.001179 376.738373,38.620903 374.289581,37.639099 
	C373.319397,37.250103 372.767456,35.817978 372.025116,34.860798 
	C373.049225,34.185547 374.011810,33.113396 375.114075,32.942493 
	C376.305267,32.757805 377.667419,33.300251 378.883636,33.728344 
	C381.685699,34.714645 384.444519,35.823833 387.958740,37.164711 
	C386.320709,28.505898 380.201630,25.276197 371.504364,27.198296 
	C367.477997,28.088129 364.356079,30.107218 364.046906,34.692425 
	C363.735809,39.306637 366.543976,41.683445 370.513947,42.968769 
	C373.036591,43.785511 375.719635,44.158997 378.160004,45.151230 
	C379.081421,45.525871 379.924561,47.046764 380.019043,48.114510 
	C380.069092,48.680958 378.459625,49.896706 377.563446,49.932968 
	C376.007355,49.995930 373.662689,49.905132 372.985596,48.940460 
	C370.344086,45.177174 367.162994,46.514408 363.724762,46.920719 
	C364.381348,52.668041 367.951752,55.185780 372.689056,55.832855 
	C378.533783,56.631199 384.498810,56.848980 388.099670,49.703060 
M251.653076,36.954830 
	C247.779831,28.219688 239.782059,24.813139 231.891998,28.537851 
	C224.574448,31.992289 221.768219,41.428703 225.792938,49.046986 
	C228.496460,54.164425 233.671707,56.783474 240.025146,56.049294 
	C245.256927,55.444733 249.079437,52.849606 250.814499,47.442539 
	C248.542648,47.717682 246.533997,48.464638 244.845184,49.662521 
	C241.428986,52.085663 237.678131,53.006706 234.116409,50.920902 
	C231.773575,49.548885 230.192017,46.876953 228.269547,44.787128 
	C228.622116,44.342506 228.974701,43.897888 229.327271,43.453266 
	C236.899796,43.453266 244.472336,43.453266 252.558777,43.453266 
	C252.297867,41.228252 252.090027,39.455765 251.653076,36.954830 
M139.750031,50.604931 
	C140.689178,51.536213 141.531479,52.598415 142.583710,53.376862 
	C148.124054,57.475735 156.450577,57.094803 161.501205,52.587303 
	C166.301773,48.302967 167.606812,40.669182 164.549164,34.758423 
	C161.421448,28.712179 154.555405,25.847267 147.569656,27.673540 
	C137.880066,30.206676 134.252762,39.980793 139.750031,50.604931 
M121.925247,43.332184 
	C123.599487,41.880993 125.845413,40.706470 126.732170,38.874176 
	C127.258606,37.786388 126.084366,34.695210 124.918274,34.163315 
	C118.172066,31.086157 111.200661,28.502722 104.217499,25.717064 
	C103.173683,33.598404 103.177956,33.586571 109.847290,35.995235 
	C111.415817,36.561722 112.944839,37.237583 115.227074,38.160309 
	C102.558327,43.016449 102.558327,43.016449 104.634132,50.301048 
	C110.182892,48.094948 115.709999,45.897457 121.925247,43.332184 
M96.319252,39.501549 
	C96.319252,33.095158 96.319252,26.688768 96.319252,20.282379 
	C95.778748,20.020418 95.238235,19.758455 94.697731,19.496494 
	C93.843796,20.649496 92.260666,21.793831 92.246834,22.956821 
	C92.077248,37.222317 92.167824,51.490654 92.116669,65.757988 
	C92.104034,69.283531 93.864357,68.894798 96.319206,68.090103 
	C96.319206,58.718235 96.319206,49.609718 96.319252,39.501549 
M273.274475,28.151024 
	C271.269928,29.207382 269.265381,30.263741 268.271515,30.787491 
	C266.565582,29.520983 265.256836,28.549355 263.312958,27.106182 
	C263.312958,37.490650 263.312958,46.395832 263.312958,55.196301 
	C266.691772,56.265774 267.831085,55.149738 267.698517,51.945232 
	C267.540802,48.132866 267.571777,44.289467 267.870819,40.487022 
	C268.291534,35.137306 270.703735,32.481556 275.957031,32.201458 
	C279.491821,32.012985 279.774261,30.717653 278.739136,28.024694 
	C277.066803,28.024694 275.583069,28.024694 273.274475,28.151024 
M70.703156,11.002865 
	C69.552345,11.426362 67.518272,11.680449 67.399094,12.301814 
	C66.786354,15.496518 66.271431,18.839634 66.704353,21.996244 
	C66.791313,22.630291 71.128532,22.735800 73.517036,22.976269 
	C74.665260,23.091869 75.909439,23.183016 76.977379,22.854105 
	C77.741730,22.618694 78.638390,21.775745 78.872482,21.017532 
	C81.018265,14.067421 78.758919,11.005919 70.703156,11.002865 
M66.546059,40.290615 
	C68.612976,40.290615 70.679893,40.290615 72.645348,40.290615 
	C72.645348,36.335293 72.645348,33.282791 72.645348,30.363937 
	C69.156876,30.363937 66.099709,30.363937 62.765797,30.363937 
	C62.765797,32.939964 62.447701,35.161175 62.889915,37.219002 
	C63.139095,38.378548 64.641434,39.268799 66.546059,40.290615 
M62.462761,28.155970 
	C66.416740,26.878592 64.893959,22.611475 64.037476,21.816195 
	C62.262108,20.167679 59.193119,19.912327 56.287308,18.963802 
	C56.287308,22.834295 56.287308,25.369127 56.287308,28.177347 
	C58.240746,28.177347 59.870369,28.177347 62.462761,28.155970 
M24.696152,32.246685 
	C25.754341,33.410740 26.812532,34.574795 27.495584,35.326180 
	C26.441336,36.704315 25.438374,38.015408 24.435413,39.326500 
	C24.783480,39.641510 25.131548,39.956516 25.479616,40.271526 
	C27.899208,39.287022 30.426411,38.489307 32.668915,37.197399 
	C33.293224,36.837727 33.411308,34.084801 33.192234,34.005642 
	C30.436285,33.009823 27.575813,32.303276 24.696152,32.246685 
M63.788956,15.441340 
	C64.256790,9.580408 60.551125,11.870378 57.547333,12.027273 
	C57.644432,14.135509 57.725449,15.894605 57.854416,18.694780 
	C60.263309,17.700163 62.020679,16.974556 63.788956,15.441340 
M47.785633,28.105680 
	C49.350979,28.031918 50.916325,27.958155 52.550148,27.881166 
	C52.550148,25.746294 52.550148,24.174660 52.550148,22.361126 
	C50.412029,22.361126 48.559013,22.361126 46.047230,22.361126 
	C46.406998,24.445028 46.697239,26.126204 47.785633,28.105680 
M49.599197,35.913086 
	C51.205299,35.913086 52.811398,35.913086 54.635719,35.913086 
	C54.635719,33.842789 54.635719,32.128036 54.635719,30.229744 
	C52.654449,30.229744 50.927902,30.229744 48.942875,30.229744 
	C48.942875,32.064484 48.942875,33.674686 49.599197,35.913086 
M54.611805,38.120743 
	C55.150841,39.697468 55.689873,41.274193 56.228909,42.850914 
	C57.602337,41.977123 60.028641,41.243843 60.167240,40.205269 
	C60.772625,35.668892 57.631378,37.035866 54.611805,38.120743 
M49.176205,38.488335 
	C44.942963,37.599827 44.386822,39.703857 45.427055,43.386570 
	C46.805279,43.386570 48.190464,43.386570 50.038696,43.386570 
	C49.962795,41.804436 49.895367,40.398899 49.176205,38.488335 
z"/>
<path fill="#47A1DE" opacity="1.000000" stroke="none" 
	d="
M70.912674,65.199295 
	C64.520744,65.349518 58.128819,65.499733 51.349380,65.255371 
	C50.653244,64.077499 50.344620,63.294220 50.047386,62.054657 
	C49.648636,61.120739 49.249516,60.238621 48.826683,60.227104 
	C43.759964,60.089104 38.687389,60.000210 33.623642,60.148182 
	C33.049648,60.164955 32.520149,61.704464 31.809872,62.745422 
	C31.447924,63.760487 31.246124,64.568016 31.044323,65.375549 
	C24.698484,65.408081 18.352644,65.440613 11.478254,65.161980 
	C10.646284,64.861824 10.342865,64.872826 10.039445,64.883835 
	C7.321729,62.654778 8.956264,60.703522 10.674003,59.140129 
	C13.492997,56.574432 14.205520,53.578400 14.085651,49.857086 
	C13.824166,41.739204 14.019161,33.607037 13.996231,25.480789 
	C13.989707,23.169029 14.052976,20.994759 17.671171,21.652294 
	C18.032232,22.692238 18.007902,23.305775 17.983572,23.919312 
	C17.924835,32.233181 17.929703,40.548252 17.773005,48.860275 
	C17.717855,51.785599 18.703253,53.046120 21.794754,53.019264 
	C34.434532,52.909458 47.076584,52.898285 59.716034,53.025841 
	C63.018471,53.059174 64.273308,51.793655 63.980648,48.604603 
	C63.859806,47.287838 63.844662,45.918636 64.085770,44.630234 
	C64.198761,44.026474 65.130440,43.057716 65.520340,43.133450 
	C66.297157,43.284332 67.420074,43.934418 67.569031,44.572323 
	C67.901688,45.997013 67.901161,47.562538 67.720688,49.031918 
	C67.223671,53.078625 68.286697,56.361721 71.268623,59.324791 
	C72.333969,60.383408 72.165100,62.684086 72.105469,64.473198 
	C71.405136,64.752136 71.158905,64.975716 70.912674,65.199295 
z"/>
<path fill="#0F0F0F" opacity="1.000000" stroke="none" 
	d="
M303.354889,56.100647 
	C300.471649,55.119549 298.014923,54.182255 296.602509,53.643387 
	C293.746094,54.599625 291.553619,55.333588 288.713928,56.284218 
	C288.713928,42.398643 288.713928,29.522455 288.713928,16.349195 
	C291.127991,16.349195 293.539856,16.349195 296.434631,16.349195 
	C296.434631,20.386440 296.434631,24.487226 296.434631,29.153191 
	C304.017822,25.890484 310.918762,25.403345 316.292328,31.890602 
	C320.366119,36.808693 320.740326,42.586060 318.078888,48.331295 
	C315.291718,54.348030 310.214417,56.588337 303.354889,56.100647 
M296.179871,41.544571 
	C296.615387,46.156776 298.885223,49.016479 303.747284,49.141850 
	C307.493622,49.238449 310.136749,47.569443 311.205078,43.821270 
	C312.420105,39.558262 310.336792,35.360996 306.425110,34.151978 
	C301.567444,32.650566 298.026489,34.946026 296.179871,41.544571 
z"/>
<path fill="#0A0A0A" opacity="1.000000" stroke="none" 
	d="
M418.916443,43.902771 
	C413.773254,43.902431 409.118286,43.902431 404.423370,43.902431 
	C405.592712,49.065842 409.991455,50.927887 414.909546,48.893188 
	C417.956177,47.632759 421.262329,46.999550 425.093109,45.900909 
	C422.672943,53.969006 414.831360,57.758320 406.683105,55.808392 
	C398.870850,53.938862 394.366943,46.436710 396.035553,38.072659 
	C397.541687,30.522930 404.958466,25.851933 413.609924,27.004498 
	C421.599976,28.068949 426.428375,34.590950 425.758728,43.903111 
	C423.665253,43.903111 421.534973,43.903111 418.916443,43.902771 
M406.384979,34.773174 
	C405.548706,35.872402 404.712433,36.971634 403.547668,38.502609 
	C408.860474,38.502609 413.335083,38.502609 417.964233,38.502609 
	C415.294586,33.050030 413.061157,32.250038 406.384979,34.773174 
z"/>
<path fill="#0B0B0B" opacity="1.000000" stroke="none" 
	d="
M354.903839,39.382748 
	C354.907196,44.813568 354.907196,49.788906 354.907196,55.948803 
	C352.017761,55.222393 349.557800,54.603951 347.931824,54.195175 
	C343.180054,54.737076 338.831604,55.863167 334.589600,55.549393 
	C329.815704,55.196270 327.065308,51.301193 327.257751,46.988125 
	C327.460754,42.439606 330.694550,39.334358 335.770538,38.939049 
	C337.587616,38.797539 339.422241,38.874207 341.248901,38.864571 
	C343.042114,38.855110 344.835388,38.862511 346.666534,38.862511 
	C346.060242,33.339703 342.413605,31.653633 338.044312,34.053429 
	C335.448517,35.479137 332.361511,36.010437 328.768738,37.180504 
	C330.798309,29.131662 335.069489,26.424534 343.009430,26.923748 
	C350.436646,27.390726 353.984253,30.971888 354.903839,39.382748 
M344.820038,48.475277 
	C345.583191,47.160561 346.346375,45.845840 347.462006,43.923958 
	C344.991119,43.923958 343.457886,43.695732 342.024933,43.977497 
	C339.879150,44.399418 337.764618,45.086861 335.752899,45.936260 
	C335.525818,46.032139 335.890900,48.745419 336.247620,48.811680 
	C338.555756,49.240452 340.936920,49.289715 343.296875,49.408619 
	C343.578491,49.422810 343.876770,49.106071 344.820038,48.475277 
z"/>
<path fill="#121212" opacity="1.000000" stroke="none" 
	d="
M208.522095,52.474106 
	C207.226791,53.730877 206.155945,55.238503 204.949097,55.356640 
	C204.065338,55.443153 202.569199,53.886047 202.093536,52.748829 
	C199.758408,47.166279 197.673401,41.479107 195.092636,34.769737 
	C192.596939,41.256454 190.606934,46.818687 188.269440,52.230839 
	C187.683395,53.587765 186.111832,55.013081 184.739532,55.339054 
	C183.993805,55.516197 182.237839,53.629375 181.753723,52.361794 
	C178.734344,44.456081 175.945633,36.462273 173.052444,28.419703 
	C176.335907,27.043953 177.976990,28.069178 178.984924,31.311182 
	C180.682922,36.772892 182.752914,42.118954 185.049850,48.594490 
	C187.607010,41.958969 189.622467,36.422867 191.917007,31.004961 
	C192.445984,29.755915 193.906189,28.136223 194.983719,28.101292 
	C196.045563,28.066874 197.647797,29.617006 198.177017,30.835100 
	C200.533401,36.258842 202.590134,41.812771 205.196411,48.441925 
	C207.516464,41.947678 209.559174,36.628670 211.294983,31.211319 
	C212.234894,28.277885 213.712814,27.084969 217.104721,28.364792 
	C214.293976,36.301121 211.491119,44.215210 208.522095,52.474106 
z"/>
<path fill="#0B0B0B" opacity="1.000000" stroke="none" 
	d="
M388.007629,50.058151 
	C384.498810,56.848980 378.533783,56.631199 372.689056,55.832855 
	C367.951752,55.185780 364.381348,52.668041 363.724762,46.920719 
	C367.162994,46.514408 370.344086,45.177174 372.985596,48.940460 
	C373.662689,49.905132 376.007355,49.995930 377.563446,49.932968 
	C378.459625,49.896706 380.069092,48.680958 380.019043,48.114510 
	C379.924561,47.046764 379.081421,45.525871 378.160004,45.151230 
	C375.719635,44.158997 373.036591,43.785511 370.513947,42.968769 
	C366.543976,41.683445 363.735809,39.306637 364.046906,34.692425 
	C364.356079,30.107218 367.477997,28.088129 371.504364,27.198296 
	C380.201630,25.276197 386.320709,28.505898 387.958740,37.164711 
	C384.444519,35.823833 381.685699,34.714645 378.883636,33.728344 
	C377.667419,33.300251 376.305267,32.757805 375.114075,32.942493 
	C374.011810,33.113396 373.049225,34.185547 372.025116,34.860794 
	C372.767456,35.817978 373.319397,37.250103 374.289581,37.639099 
	C376.738373,38.620903 379.420776,39.001179 381.927246,39.862110 
	C386.570435,41.456982 389.173065,44.460335 388.007629,50.058151 
z"/>
<path fill="#0F0F0F" opacity="1.000000" stroke="none" 
	d="
M251.767639,37.319054 
	C252.090027,39.455765 252.297867,41.228252 252.558777,43.453266 
	C244.472336,43.453266 236.899796,43.453266 229.327271,43.453266 
	C228.974701,43.897888 228.622116,44.342506 228.269547,44.787128 
	C230.192017,46.876953 231.773575,49.548885 234.116409,50.920902 
	C237.678131,53.006706 241.428986,52.085663 244.845184,49.662521 
	C246.533997,48.464638 248.542648,47.717682 250.814499,47.442539 
	C249.079437,52.849606 245.256927,55.444733 240.025146,56.049294 
	C233.671707,56.783474 228.496460,54.164425 225.792938,49.046986 
	C221.768219,41.428703 224.574448,31.992289 231.891998,28.537851 
	C239.782059,24.813139 247.779831,28.219688 251.767639,37.319054 
M240.677399,31.721313 
	C233.617859,30.983532 230.423859,33.039051 229.192993,39.227951 
	C235.343613,39.227951 241.463470,39.227951 247.583328,39.227951 
	C247.869751,38.762993 248.156189,38.298035 248.442627,37.833080 
	C246.102219,35.853317 243.761810,33.873554 240.677399,31.721313 
z"/>
<path fill="#121212" opacity="1.000000" stroke="none" 
	d="
M139.514191,50.310127 
	C134.252762,39.980793 137.880066,30.206676 147.569656,27.673540 
	C154.555405,25.847267 161.421448,28.712179 164.549164,34.758423 
	C167.606812,40.669182 166.301773,48.302967 161.501205,52.587303 
	C156.450577,57.094803 148.124054,57.475735 142.583710,53.376862 
	C141.531479,52.598415 140.689178,51.536213 139.514191,50.310127 
M142.653305,36.649399 
	C140.339157,43.639812 142.008896,48.776165 147.319183,51.002300 
	C152.266968,53.076469 157.932556,51.277233 160.353500,46.862957 
	C162.830124,42.347176 161.594604,36.200386 157.640442,33.365387 
	C153.153091,30.148117 147.375900,31.160891 142.653305,36.649399 
z"/>
<path fill="#090909" opacity="1.000000" stroke="none" 
	d="
M121.581177,43.516075 
	C115.709999,45.897457 110.182892,48.094948 104.634132,50.301048 
	C102.558327,43.016449 102.558327,43.016449 115.227074,38.160309 
	C112.944839,37.237583 111.415817,36.561722 109.847290,35.995235 
	C103.177956,33.586571 103.173683,33.598404 104.217499,25.717064 
	C111.200661,28.502722 118.172066,31.086157 124.918274,34.163315 
	C126.084366,34.695210 127.258606,37.786388 126.732170,38.874176 
	C125.845413,40.706470 123.599487,41.880993 121.581177,43.516075 
z"/>
<path fill="#151515" opacity="1.000000" stroke="none" 
	d="
M96.319229,40.001373 
	C96.319206,49.609718 96.319206,58.718235 96.319206,68.090103 
	C93.864357,68.894798 92.104034,69.283531 92.116669,65.757988 
	C92.167824,51.490654 92.077248,37.222317 92.246834,22.956821 
	C92.260666,21.793831 93.843796,20.649496 94.697731,19.496494 
	C95.238235,19.758455 95.778748,20.020418 96.319252,20.282379 
	C96.319252,26.688768 96.319252,33.095158 96.319229,40.001373 
z"/>
<path fill="#151515" opacity="1.000000" stroke="none" 
	d="
M273.686920,28.087860 
	C275.583069,28.024694 277.066803,28.024694 278.739136,28.024694 
	C279.774261,30.717653 279.491821,32.012985 275.957031,32.201458 
	C270.703735,32.481556 268.291534,35.137306 267.870819,40.487022 
	C267.571777,44.289467 267.540802,48.132866 267.698517,51.945232 
	C267.831085,55.149738 266.691772,56.265774 263.312958,55.196301 
	C263.312958,46.395832 263.312958,37.490650 263.312958,27.106182 
	C265.256836,28.549355 266.565582,29.520983 268.271515,30.787491 
	C269.265381,30.263741 271.269928,29.207382 273.686920,28.087860 
z"/>
<path fill="#F4F6FC" opacity="1.000000" stroke="none" 
	d="
M71.162003,11.002007 
	C78.758919,11.005919 81.018265,14.067421 78.872482,21.017532 
	C78.638390,21.775745 77.741730,22.618694 76.977379,22.854105 
	C75.909439,23.183016 74.665260,23.091869 73.517036,22.976269 
	C71.128532,22.735800 66.791313,22.630291 66.704353,21.996244 
	C66.271431,18.839634 66.786354,15.496518 67.399094,12.301814 
	C67.518272,11.680449 69.552345,11.426362 71.162003,11.002007 
z"/>
<path fill="#5AB5F9" opacity="1.000000" stroke="none" 
	d="
M66.062653,40.285488 
	C64.641434,39.268799 63.139095,38.378548 62.889915,37.219002 
	C62.447701,35.161175 62.765797,32.939964 62.765797,30.363937 
	C66.099709,30.363937 69.156876,30.363937 72.645348,30.363937 
	C72.645348,33.282791 72.645348,36.335293 72.645348,40.290615 
	C70.679893,40.290615 68.612976,40.290615 66.062653,40.285488 
z"/>
<path fill="#233DFF" opacity="1.000000" stroke="none" 
	d="
M61.981377,28.166658 
	C59.870369,28.177347 58.240746,28.177347 56.287308,28.177347 
	C56.287308,25.369127 56.287308,22.834295 56.287308,18.963802 
	C59.193119,19.912327 62.262108,20.167679 64.037476,21.816195 
	C64.893959,22.611475 66.416740,26.878592 61.981377,28.166658 
z"/>
<path fill="#141414" opacity="1.000000" stroke="none" 
	d="
M24.719112,31.884716 
	C27.575813,32.303276 30.436285,33.009823 33.192234,34.005642 
	C33.411308,34.084801 33.293224,36.837727 32.668915,37.197399 
	C30.426411,38.489307 27.899208,39.287022 25.479616,40.271526 
	C25.131548,39.956516 24.783480,39.641510 24.435413,39.326500 
	C25.438374,38.015408 26.441336,36.704315 27.495584,35.326180 
	C26.812532,34.574795 25.754341,33.410740 24.719112,31.884716 
z"/>
<path fill="#228FD8" opacity="1.000000" stroke="none" 
	d="
M18.390408,23.811487 
	C18.007902,23.305775 18.032232,22.692238 18.062511,21.771912 
	C26.570150,21.465120 35.071838,21.465120 43.573524,21.465120 
	C43.590656,21.974724 43.607788,22.484329 43.624916,22.993933 
	C35.349026,23.230509 27.073135,23.467085 18.390408,23.811487 
z"/>
<path fill="#47A1DE" opacity="1.000000" stroke="none" 
	d="
M47.047619,65.352585 
	C43.308662,65.456673 39.569706,65.560753 35.384941,65.229431 
	C34.953232,64.033920 34.967331,63.273808 35.431847,62.403198 
	C39.594288,62.366364 43.306313,62.440022 47.029396,62.799931 
	C47.042847,63.841648 47.045235,64.597122 47.047619,65.352585 
z"/>
<path fill="#212FA3" opacity="1.000000" stroke="none" 
	d="
M63.783501,15.845144 
	C62.020679,16.974556 60.263309,17.700163 57.854416,18.694780 
	C57.725449,15.894605 57.644432,14.135509 57.547333,12.027273 
	C60.551125,11.870378 64.256790,9.580408 63.783501,15.845144 
z"/>
<path fill="#71BFFA" opacity="1.000000" stroke="none" 
	d="
M47.386555,27.956530 
	C46.697239,26.126204 46.406998,24.445028 46.047230,22.361126 
	C48.559013,22.361126 50.412029,22.361126 52.550148,22.361126 
	C52.550148,24.174660 52.550148,25.746294 52.550148,27.881166 
	C50.916325,27.958155 49.350979,28.031918 47.386555,27.956530 
z"/>
<path fill="#1C2CA1" opacity="1.000000" stroke="none" 
	d="
M49.271034,35.598984 
	C48.942875,33.674686 48.942875,32.064484 48.942875,30.229744 
	C50.927902,30.229744 52.654449,30.229744 54.635719,30.229744 
	C54.635719,32.128036 54.635719,33.842789 54.635719,35.913086 
	C52.811398,35.913086 51.205299,35.913086 49.271034,35.598984 
z"/>
<path fill="#F6F7FD" opacity="1.000000" stroke="none" 
	d="
M54.894341,37.844696 
	C57.631378,37.035866 60.772625,35.668892 60.167240,40.205269 
	C60.028641,41.243843 57.602337,41.977123 56.228905,42.850914 
	C55.689873,41.274193 55.150841,39.697468 54.894341,37.844696 
z"/>
<path fill="#4359FF" opacity="1.000000" stroke="none" 
	d="
M49.502071,38.740849 
	C49.895367,40.398899 49.962795,41.804436 50.038696,43.386570 
	C48.190464,43.386570 46.805279,43.386570 45.427055,43.386570 
	C44.386822,39.703857 44.942963,37.599827 49.502071,38.740849 
z"/>
<path fill="#2E95DA" opacity="1.000000" stroke="none" 
	d="
M34.981430,62.513695 
	C34.967331,63.273808 34.953232,64.033920 34.944099,65.073708 
	C33.901814,65.437531 32.854557,65.521675 31.425814,65.490685 
	C31.246124,64.568016 31.447924,63.760487 32.182533,62.671631 
	C33.470703,62.431431 34.226067,62.472561 34.981430,62.513695 
z"/>
<path fill="#2E95DA" opacity="1.000000" stroke="none" 
	d="
M47.426361,65.477486 
	C47.045235,64.597122 47.042847,63.841648 47.404140,62.736977 
	C48.523880,62.428825 49.279938,62.469883 50.035995,62.510941 
	C50.344620,63.294220 50.653244,64.077499 50.958061,65.118240 
	C49.904537,65.451256 48.854820,65.526817 47.426361,65.477486 
z"/>
<path fill="#2E95DA" opacity="1.000000" stroke="none" 
	d="
M10.281256,65.051590 
	C10.342865,64.872826 10.646284,64.861824 11.030571,65.043411 
	C10.915314,65.230461 10.719191,65.224907 10.281256,65.051590 
z"/>
<path fill="#2E95DA" opacity="1.000000" stroke="none" 
	d="
M71.196388,65.171829 
	C71.158905,64.975716 71.405136,64.752136 71.788704,64.658890 
	C71.777405,64.907608 71.628754,65.025986 71.196388,65.171829 
z"/>
<path fill="#F6FAFE" opacity="1.000000" stroke="none" 
	d="
M50.047386,62.054657 
	C49.279938,62.469883 48.523880,62.428825 47.393082,62.450729 
	C43.306313,62.440022 39.594288,62.366364 35.431847,62.403198 
	C34.226067,62.472561 33.470703,62.431431 32.342678,62.464088 
	C32.520149,61.704464 33.049648,60.164955 33.623642,60.148182 
	C38.687389,60.000210 43.759964,60.089104 48.826683,60.227104 
	C49.249516,60.238621 49.648636,61.120739 50.047386,62.054657 
z"/>
<path fill="#F5F5F5" opacity="1.000000" stroke="none" 
	d="
M296.197571,41.157593 
	C298.026489,34.946026 301.567444,32.650566 306.425110,34.151978 
	C310.336792,35.360996 312.420105,39.558262 311.205078,43.821270 
	C310.136749,47.569443 307.493622,49.238449 303.747284,49.141850 
	C298.885223,49.016479 296.615387,46.156776 296.197571,41.157593 
z"/>
<path fill="#E3E3E3" opacity="1.000000" stroke="none" 
	d="
M406.690125,34.532787 
	C413.061157,32.250038 415.294586,33.050030 417.964233,38.502609 
	C413.335083,38.502609 408.860474,38.502609 403.547668,38.502609 
	C404.712433,36.971634 405.548706,35.872402 406.690125,34.532787 
z"/>
<path fill="#F2F2F2" opacity="1.000000" stroke="none" 
	d="
M344.493683,48.709000 
	C343.876770,49.106071 343.578491,49.422810 343.296875,49.408619 
	C340.936920,49.289715 338.555756,49.240452 336.247620,48.811680 
	C335.890900,48.745419 335.525818,46.032139 335.752899,45.936260 
	C337.764618,45.086861 339.879150,44.399418 342.024933,43.977497 
	C343.457886,43.695732 344.991119,43.923958 347.462006,43.923958 
	C346.346375,45.845840 345.583191,47.160561 344.493683,48.709000 
z"/>
<path fill="#E5E5E5" opacity="1.000000" stroke="none" 
	d="
M241.049408,31.807552 
	C243.761810,33.873554 246.102219,35.853317 248.442627,37.833080 
	C248.156189,38.298035 247.869751,38.762993 247.583328,39.227951 
	C241.463470,39.227951 235.343613,39.227951 229.192993,39.227951 
	C230.423859,33.039051 233.617859,30.983532 241.049408,31.807552 
z"/>
<path fill="#F8F8F8" opacity="1.000000" stroke="none" 
	d="
M142.848175,36.286896 
	C147.375900,31.160891 153.153091,30.148117 157.640442,33.365387 
	C161.594604,36.200386 162.830124,42.347176 160.353500,46.862957 
	C157.932556,51.277233 152.266968,53.076469 147.319183,51.002300 
	C142.008896,48.776165 140.339157,43.639812 142.848175,36.286896 
z"/>
</svg>