<svg version="1.1" id="Layer_1" xmlns="http://www.w3.org/2000/svg" xmlns:xlink="http://www.w3.org/1999/xlink" x="0px" y="0px" width="100%" viewBox="0 0 430 80" enable-background="new 0 0 430 80" xml:space="preserve">
<path fill="#FEFEFE" opacity="1.000000" stroke="none" d=" M315.000000,81.000000   C210.000015,81.000000 105.500023,81.000000 1.000028,81.000000   C1.000019,54.333347 1.000019,27.666698 1.000009,1.000035   C144.333298,1.000023 287.666595,1.000023 430.999939,1.000012   C430.999939,27.666632 430.999939,54.333263 430.999969,80.999947   C392.500000,81.000000 354.000000,81.000000 315.000000,81.000000  M32.846756,65.685158   C37.245960,65.586266 41.645164,65.487373 46.756226,65.610168   C47.488834,65.534073 48.221447,65.457977 49.736523,65.657272   C56.128033,65.506119 62.519539,65.354958 69.480621,65.150032   C69.629570,65.030952 69.778526,64.911873 70.500519,64.550468   C70.322525,62.991375 70.736366,60.794609 69.863358,59.984356   C66.220108,56.602959 65.037567,52.647343 65.743050,47.898045   C65.863983,47.083965 65.981995,46.139065 65.686638,45.426498   C65.316307,44.533058 64.518036,43.816994 63.904461,43.024368   C63.259911,43.764389 62.270821,44.415737 62.052162,45.265362   C61.730103,46.516762 61.878502,47.914742 61.966682,49.240967   C62.156174,52.090797 60.771065,53.015186 58.063374,53.000263   C45.237492,52.929569 32.409260,53.060829 19.587467,52.820820   C18.313511,52.796970 16.019400,50.769741 15.992337,49.629753   C15.787073,40.983463 16.029251,32.326553 17.039934,23.523380   C25.245031,23.523380 33.450130,23.523380 41.655228,23.523380   C41.644993,22.826220 41.634762,22.129061 41.624531,21.431900   C33.097740,21.431900 24.570948,21.431900 15.262918,21.224312   C12.121948,21.117538 11.969532,23.200346 11.984525,25.550222   C12.028937,32.511524 11.882269,39.475952 12.039103,46.434002   C12.156059,51.622849 12.227233,56.472485 7.685956,60.392620   C4.928205,62.773170 6.485236,65.243454 9.721104,65.392937   C16.148260,65.689842 22.601662,65.418633 29.754568,65.609802   C30.487791,65.537758 31.221012,65.465721 32.846756,65.685158  M293.661316,53.402760   C295.171844,54.002712 296.653534,54.692673 298.197937,55.186749   C304.268066,57.128681 309.919861,56.348949 314.072815,51.307163   C318.014374,46.522007 319.070587,41.045528 316.123657,35.099751   C313.287109,29.376743 309.181335,26.653967 302.552765,27.045679   C299.855865,27.205048 297.196655,28.001768 294.054199,28.596754   C294.054199,26.193647 294.056488,24.221306 294.053802,22.248970   C294.044403,15.349667 293.611359,15.032444 286.055359,16.886244   C286.055359,28.703358 286.007446,40.654491 286.138214,52.603672   C286.149811,53.660637 287.416992,55.635796 287.946564,55.584671   C289.706299,55.414783 291.395508,54.514252 293.661316,53.402760  M418.335144,43.981308   C420.100525,43.901016 421.865906,43.820728 423.454498,43.748482   C425.234314,36.845448 420.464142,28.835285 412.118317,27.163605   C404.533539,25.644346 396.672089,29.914049 394.562195,36.830563   C392.175690,44.654087 395.642914,51.953323 403.262482,55.146484   C410.599792,58.221367 418.654755,55.138424 423.223358,46.399944   C419.406525,47.241123 416.396576,47.457588 413.769684,48.574757   C407.982391,51.035980 404.054138,49.820866 402.421722,43.981281   C407.515320,43.981281 412.448151,43.981281 418.335144,43.981308  M345.242645,27.910543   C335.800446,25.200087 328.851685,28.244055 327.478577,36.926083   C330.835358,35.779785 333.741028,35.091389 336.366089,33.822475   C340.691101,31.731812 344.042450,33.503380 344.489410,38.983490   C341.337250,38.983490 338.208496,38.943783 335.081116,38.992165   C329.445526,39.079346 325.241699,42.655682 325.151550,47.378044   C325.066101,51.854698 329.493530,55.749668 335.037048,55.986137   C340.861481,56.234589 346.297821,51.914387 352.731415,55.940945   C352.731415,48.565208 353.096710,42.597187 352.601929,36.701344   C352.276428,32.822941 350.288483,29.378738 345.242645,27.910543  M191.843109,28.176374   C190.957245,29.699921 189.885574,31.146883 189.220184,32.761303   C187.183838,37.701881 185.303589,42.706795 182.884796,48.912655   C180.589737,42.100819 178.715973,36.648186 176.921631,31.169538   C175.969162,28.261383 174.347229,27.156696 171.258530,28.721762   C174.178711,36.968380 177.135559,45.051258 179.885239,53.204010   C181.134079,56.906834 183.153641,55.852859 185.076004,54.210403   C186.003845,53.417664 186.436554,51.968845 186.922546,50.749012   C188.844864,45.924103 190.699570,41.072258 193.115112,34.850388   C195.774231,41.648922 197.767944,47.043510 200.040283,52.318069   C200.524841,53.442806 201.902740,54.473782 203.098373,54.891132   C203.807480,55.138664 205.555084,54.327335 205.830780,53.607307   C208.996857,45.338505 211.970001,36.995819 215.148163,28.249968   C207.848083,27.427385 209.444870,33.223976 207.917328,36.152840   C206.071457,39.692051 204.918930,43.592869 203.147980,48.157806   C200.606384,41.951881 198.550919,36.558449 196.148758,31.324116   C195.528610,29.972794 193.819778,29.121090 191.843109,28.176374  M367.792572,27.900145   C364.116364,29.243662 362.021851,31.885695 362.075989,35.780277   C362.133972,39.950531 365.297882,41.735367 368.654480,42.988670   C370.960632,43.849770 373.511810,44.081345 375.770782,45.029449   C376.704895,45.421478 377.825775,47.091103 377.650330,47.924751   C377.470947,48.777138 375.847534,49.784657 374.783142,49.876472   C373.429779,49.993221 371.503204,49.704769 370.698944,48.806995   C368.009186,45.804619 365.226624,46.876141 362.218292,47.603848   C363.886414,54.845276 371.978271,58.306831 379.935364,55.463676   C383.230835,54.286179 385.749390,52.491699 386.080170,48.482868   C386.427521,44.272755 384.334503,41.820309 380.812439,40.423016   C378.059509,39.330875 375.076019,38.827305 372.297089,37.788975   C371.405853,37.455959 370.093567,35.927448 370.274750,35.508682   C370.711212,34.499905 371.867767,33.228279 372.822754,33.150261   C374.328247,33.027283 375.917908,33.757233 377.451599,34.197025   C380.023315,34.934479 382.579010,35.727707 385.858582,36.712887   C383.406799,27.775867 378.323730,25.493088 367.792572,27.900145  M229.984879,43.055504   C236.555206,43.055504 243.125549,43.055504 249.372009,43.055504   C251.622192,35.949169 245.645233,28.747623 238.236755,27.225941   C231.679901,25.879179 224.880661,30.343285 222.714127,37.479462   C220.604767,44.427235 224.070236,52.346138 230.373383,54.981525   C237.556656,57.984890 244.909058,55.460712 249.376038,47.189232   C246.272934,48.428337 244.189392,48.879543 242.548370,49.986679   C237.535950,53.368397 231.474319,52.470284 228.087158,47.533077   C226.857529,45.740726 225.887299,43.890198 229.984879,43.055504  M140.017487,52.583786   C146.111847,57.597504 155.946915,57.106060 160.644897,51.553062   C165.736221,45.535107 165.178955,36.284275 159.398956,30.870192   C153.747818,25.576797 144.698334,25.763731 139.187500,31.287678   C133.269623,37.219627 133.389511,45.706951 140.017487,52.583786  M118.981987,32.491734   C113.519852,30.374214 108.057716,28.256695 102.718170,26.186699   C98.777962,35.917252 108.248817,34.575954 112.031746,38.039368   C107.931793,41.467968 98.876205,40.447975 102.826241,50.038960   C108.404503,47.797138 113.906029,45.577736 119.414650,43.376087   C121.950356,42.362625 124.888199,42.163486 125.080391,38.184555   C125.282669,33.997128 121.989304,34.080265 118.981987,32.491734  M94.037865,38.500618   C94.036667,33.509529 94.151970,28.513647 93.947060,23.530939   C93.899666,22.378386 92.757736,21.270844 92.119469,20.142586   C91.421547,21.209173 90.126854,22.269812 90.116165,23.343248   C89.978546,37.150600 89.967430,50.960381 90.114464,64.767525   C90.128586,66.093719 91.415245,67.406349 92.111168,68.725273   C92.753326,67.468544 93.926987,66.222198 93.951744,64.953415   C94.117271,56.471767 94.037865,47.985340 94.037865,38.500618  M265.959412,45.531479   C265.974091,35.044750 265.984039,35.073490 275.198212,31.879410   C275.908020,31.633358 276.802063,30.562181 276.770813,29.915096   C276.739349,29.264156 275.544769,28.050062 275.056244,28.140747   C271.794861,28.746151 268.585999,29.634720 265.584259,30.375986   C264.789490,29.791611 263.666412,28.965816 262.543304,28.140026   C262.031158,29.377493 261.101746,30.606398 261.076141,31.853846   C260.933289,38.816750 260.917419,45.786652 261.108215,52.747307   C261.137177,53.803436 262.473358,54.823730 263.204865,55.860600   C264.114166,54.890602 265.581635,54.036407 265.812103,52.925591   C266.241272,50.856796 265.950317,48.638615 265.959412,45.531479  M76.046410,11.339496   C72.484665,11.339496 68.922920,11.339496 65.355087,11.339496   C64.935852,15.418743 64.575111,18.928753 64.214706,22.435516   C79.706390,23.758799 77.056068,23.984274 76.046410,11.339496  M69.257164,29.981852   C66.532417,29.981852 63.807671,29.981852 61.120171,29.981852   C61.120171,33.769230 61.120171,36.806873 61.120171,39.960346   C64.518661,39.960346 67.543495,39.960346 71.384911,39.960346   C70.945427,36.407333 70.559532,33.287582 69.257164,29.981852  M23.793694,30.820433   C22.748096,33.402428 22.748096,33.402428 25.525953,35.379734   C24.482870,36.681980 23.418520,38.010777 22.354170,39.339573   C22.689920,39.650990 23.025673,39.962406 23.361425,40.273827   C25.505373,39.444202 27.703880,38.727776 29.768131,37.732811   C30.675121,37.295647 31.861078,36.322388 31.905668,35.535072   C31.947424,34.797836 30.787111,33.720795 29.910490,33.260620   C28.159519,32.341465 26.240612,31.742226 23.793694,30.820433  M62.437298,26.536638   C62.516449,19.465734 61.851856,18.947632 54.265846,20.258953   C54.265846,22.788567 54.265846,25.327408 54.265846,28.448769   C57.163017,28.098707 59.697178,27.792507 62.437298,26.536638  M55.757881,16.975721   C57.661819,17.305651 59.565758,17.635580 61.894382,18.039104   C61.743542,15.301269 61.648174,13.570326 61.536861,11.549979   C59.305256,11.649559 57.561710,11.727361 55.605652,11.814645   C55.605652,13.571835 55.605652,14.886507 55.757881,16.975721  M44.499435,22.884939   C44.826393,24.696348 44.779137,26.730824 45.661549,28.211132   C46.022591,28.816811 49.288662,28.739637 49.672451,28.073683   C50.589123,26.483046 50.578232,24.357859 51.039810,21.934349   C48.333855,22.095730 46.700237,22.193157 44.499435,22.884939  M47.256889,30.205097   C47.096069,32.055119 46.935249,33.905144 46.774338,35.756237   C49.073040,35.756237 50.801968,35.756237 52.638622,35.756237   C52.638622,33.758163 52.638622,32.045158 52.638622,30.003830   C50.932297,30.003830 49.490543,30.003830 47.256889,30.205097  M52.557293,41.811909   C55.201832,43.981731 57.213486,43.139515 58.203587,40.220978   C58.464912,39.450661 57.311790,37.391808 56.524071,37.218903   C53.623047,36.582111 51.597805,37.561226 52.557293,41.811909  M44.728733,38.342693   C43.995667,39.800346 43.262600,41.258003 42.188076,43.394623   C44.811356,43.394623 46.199596,43.394623 47.587837,43.394623   C47.995468,43.040672 48.403099,42.686722 48.810734,42.332771   C47.721642,40.993916 46.632553,39.655060 44.728733,38.342693  z"/>
<path fill="#47A1DE" opacity="1.000000" stroke="none" d=" M16.131916,23.672953   C16.029251,32.326553 15.787073,40.983463 15.992337,49.629753   C16.019400,50.769741 18.313511,52.796970 19.587467,52.820820   C32.409260,53.060829 45.237492,52.929569 58.063374,53.000263   C60.771065,53.015186 62.156174,52.090797 61.966682,49.240967   C61.878502,47.914742 61.730103,46.516762 62.052162,45.265362   C62.270821,44.415737 63.259911,43.764389 63.904465,43.024368   C64.518036,43.816994 65.316307,44.533058 65.686638,45.426498   C65.981995,46.139065 65.863983,47.083965 65.743050,47.898045   C65.037567,52.647343 66.220108,56.602959 69.863358,59.984356   C70.736366,60.794609 70.322525,62.991375 70.076645,64.539459   C69.405525,64.753563 69.158287,64.978676 68.911049,65.203796   C62.519539,65.354958 56.128033,65.506119 49.349155,65.261810   C48.652596,64.083443 48.343403,63.300526 48.049473,62.060207   C47.656872,61.122059 47.260170,60.234108 46.839455,60.222576   C41.765141,60.083515 36.684956,59.994251 31.613554,60.141632   C31.043396,60.158195 30.517683,61.704098 29.809883,62.747841   C29.447012,63.763985 29.245615,64.573097 29.044220,65.382202   C22.601662,65.418633 16.148260,65.689842 9.721104,65.392937   C6.485236,65.243454 4.928205,62.773170 7.685956,60.392620   C12.227233,56.472485 12.156059,51.622849 12.039103,46.434002   C11.882269,39.475952 12.028937,32.511524 11.984525,25.550222   C11.969532,23.200346 12.121948,21.117538 15.656311,21.700850   C16.077110,22.675909 16.104513,23.174431 16.131916,23.672953  z"/>
<path fill="#DBDBDB" opacity="1.000000" stroke="none" d=" M293.386536,53.648323   C291.395508,54.514252 289.706299,55.414783 287.946564,55.584671   C287.416992,55.635796 286.149811,53.660637 286.138214,52.603672   C286.007446,40.654491 286.055359,28.703358 286.055359,16.886244   C293.611359,15.032444 294.044403,15.349667 294.053802,22.248970   C294.056488,24.221306 294.054199,26.193647 294.054199,28.596754   C297.196655,28.001768 299.855865,27.205048 302.552765,27.045679   C309.181335,26.653967 313.287109,29.376743 316.123657,35.099751   C319.070587,41.045528 318.014374,46.522007 314.072815,51.307163   C309.919861,56.348949 304.268066,57.128681 298.197937,55.186749   C296.653534,54.692673 295.171844,54.002712 293.386536,53.648323  M294.063782,40.731113   C294.467072,42.312805 294.557037,44.072506 295.334717,45.441513   C297.356873,49.001335 302.147888,50.080776 305.843018,48.073868   C308.838715,46.446835 310.281433,40.907215 308.602051,37.479923   C307.065765,34.344627 301.972778,32.748970 298.555176,34.862286   C296.739044,35.985317 295.612549,38.223595 294.063782,40.731113  z"/>
<path fill="#DADADA" opacity="1.000000" stroke="none" d=" M417.858063,43.981293   C412.448151,43.981281 407.515320,43.981281 402.421722,43.981281   C404.054138,49.820866 407.982391,51.035980 413.769684,48.574757   C416.396576,47.457588 419.406525,47.241123 423.223358,46.399944   C418.654755,55.138424 410.599792,58.221367 403.262482,55.146484   C395.642914,51.953323 392.175690,44.654087 394.562195,36.830563   C396.672089,29.914049 404.533539,25.644346 412.118317,27.163605   C420.464142,28.835285 425.234314,36.845448 423.454498,43.748482   C421.865906,43.820728 420.100525,43.901016 417.858063,43.981293  M408.676178,33.070793   C406.407440,34.467720 404.138702,35.864647 401.869965,37.261574   C402.129059,37.707081 402.388153,38.152592 402.647247,38.598099   C406.921936,38.598099 411.196655,38.598099 415.471344,38.598099   C415.724274,38.058418 415.977234,37.518738 416.230164,36.979057   C413.969940,35.679504 411.709686,34.379951 408.676178,33.070793  z"/>
<path fill="#DADADA" opacity="1.000000" stroke="none" d=" M345.631439,28.007442   C350.288483,29.378738 352.276428,32.822941 352.601929,36.701344   C353.096710,42.597187 352.731415,48.565208 352.731415,55.940945   C346.297821,51.914387 340.861481,56.234589 335.037048,55.986137   C329.493530,55.749668 325.066101,51.854698 325.151550,47.378044   C325.241699,42.655682 329.445526,39.079346 335.081116,38.992165   C338.208496,38.943783 341.337250,38.983490 344.489410,38.983490   C344.042450,33.503380 340.691101,31.731812 336.366089,33.822475   C333.741028,35.091389 330.835358,35.779785 327.478577,36.926083   C328.851685,28.244055 335.800446,25.200087 345.631439,28.007442  M342.808411,48.484142   C343.509705,47.293507 344.211029,46.102875 345.271484,44.302483   C343.021362,44.164768 341.530914,43.772923 340.184265,44.058685   C337.932312,44.536549 335.759949,45.416779 333.616272,46.281902   C333.526642,46.318085 333.939880,48.595360 334.332550,48.667637   C336.607056,49.086315 338.944641,49.173668 341.264160,49.322277   C341.549866,49.340584 341.854980,49.056305 342.808411,48.484142  z"/>
<path fill="#DBDBDB" opacity="1.000000" stroke="none" d=" M192.227081,28.108128   C193.819778,29.121090 195.528610,29.972794 196.148758,31.324116   C198.550919,36.558449 200.606384,41.951881 203.147980,48.157806   C204.918930,43.592869 206.071457,39.692051 207.917328,36.152840   C209.444870,33.223976 207.848083,27.427385 215.148163,28.249968   C211.970001,36.995819 208.996857,45.338505 205.830780,53.607307   C205.555084,54.327335 203.807480,55.138664 203.098373,54.891132   C201.902740,54.473782 200.524841,53.442806 200.040283,52.318069   C197.767944,47.043510 195.774231,41.648922 193.115112,34.850388   C190.699570,41.072258 188.844864,45.924103 186.922546,50.749012   C186.436554,51.968845 186.003845,53.417664 185.076004,54.210403   C183.153641,55.852859 181.134079,56.906834 179.885239,53.204010   C177.135559,45.051258 174.178711,36.968380 171.258530,28.721762   C174.347229,27.156696 175.969162,28.261383 176.921631,31.169538   C178.715973,36.648186 180.589737,42.100819 182.884796,48.912655   C185.303589,42.706795 187.183838,37.701881 189.220184,32.761303   C189.885574,31.146883 190.957245,29.699921 192.227081,28.108128  z"/>
<path fill="#DADADA" opacity="1.000000" stroke="none" d=" M368.183258,27.784527   C378.323730,25.493088 383.406799,27.775867 385.858582,36.712887   C382.579010,35.727707 380.023315,34.934479 377.451599,34.197025   C375.917908,33.757233 374.328247,33.027283 372.822754,33.150261   C371.867767,33.228279 370.711212,34.499905 370.274750,35.508682   C370.093567,35.927448 371.405853,37.455959 372.297089,37.788975   C375.076019,38.827305 378.059509,39.330875 380.812439,40.423016   C384.334503,41.820309 386.427521,44.272755 386.080170,48.482868   C385.749390,52.491699 383.230835,54.286179 379.935364,55.463676   C371.978271,58.306831 363.886414,54.845276 362.218292,47.603848   C365.226624,46.876141 368.009186,45.804619 370.698944,48.806995   C371.503204,49.704769 373.429779,49.993221 374.783142,49.876472   C375.847534,49.784657 377.470947,48.777138 377.650330,47.924751   C377.825775,47.091103 376.704895,45.421478 375.770782,45.029449   C373.511810,44.081345 370.960632,43.849770 368.654480,42.988670   C365.297882,41.735367 362.133972,39.950531 362.075989,35.780277   C362.021851,31.885695 364.116364,29.243662 368.183258,27.784527  z"/>
<path fill="#DADADA" opacity="1.000000" stroke="none" d=" M229.552582,43.066471   C225.887299,43.890198 226.857529,45.740726 228.087158,47.533077   C231.474319,52.470284 237.535950,53.368397 242.548370,49.986679   C244.189392,48.879543 246.272934,48.428337 249.376038,47.189232   C244.909058,55.460712 237.556656,57.984890 230.373383,54.981525   C224.070236,52.346138 220.604767,44.427235 222.714127,37.479462   C224.880661,30.343285 231.679901,25.879179 238.236755,27.225941   C245.645233,28.747623 251.622192,35.949169 249.372009,43.055504   C243.125549,43.055504 236.555206,43.055504 229.552582,43.066471  M234.915039,31.189938   C232.511093,32.791019 229.966248,34.232128 227.818283,36.123859   C227.371689,36.517193 228.346832,39.688747 228.748917,39.706379   C234.367599,39.952793 240.000565,39.873447 245.871857,39.873447   C244.359070,33.677765 240.909561,31.262516 234.915039,31.189938  z"/>
<path fill="#DBDBDB" opacity="1.000000" stroke="none" d=" M139.749161,52.318031   C133.389511,45.706951 133.269623,37.219627 139.187500,31.287678   C144.698334,25.763731 153.747818,25.576797 159.398956,30.870192   C165.178955,36.284275 165.736221,45.535107 160.644897,51.553062   C155.946915,57.106060 146.111847,57.597504 139.749161,52.318031  M141.414185,47.776093   C141.974670,48.384281 142.462662,49.086143 143.107544,49.585270   C146.941986,52.553040 151.152603,52.836296 155.068207,50.186283   C158.869202,47.613846 160.760162,44.034454 159.240921,39.066235   C157.698288,34.021561 154.647202,31.797205 149.400131,31.914793   C141.124542,32.100250 137.829468,37.922421 141.414185,47.776093  z"/>
<path fill="#DADADA" opacity="1.000000" stroke="none" d=" M119.331390,32.663719   C121.989304,34.080265 125.282669,33.997128 125.080391,38.184555   C124.888199,42.163486 121.950356,42.362625 119.414650,43.376087   C113.906029,45.577736 108.404503,47.797138 102.826241,50.038960   C98.876205,40.447975 107.931793,41.467968 112.031746,38.039368   C108.248817,34.575954 98.777962,35.917252 102.718170,26.186699   C108.057716,28.256695 113.519852,30.374214 119.331390,32.663719  z"/>
<path fill="#DBDBDB" opacity="1.000000" stroke="none" d=" M94.037918,39.000542   C94.037865,47.985340 94.117271,56.471767 93.951744,64.953415   C93.926987,66.222198 92.753326,67.468544 92.111168,68.725273   C91.415245,67.406349 90.128586,66.093719 90.114464,64.767525   C89.967430,50.960381 89.978546,37.150600 90.116165,23.343248   C90.126854,22.269812 91.421547,21.209173 92.119461,20.142588   C92.757736,21.270844 93.899666,22.378386 93.947060,23.530939   C94.151970,28.513647 94.036667,33.509529 94.037918,39.000542  z"/>
<path fill="#DBDBDB" opacity="1.000000" stroke="none" d=" M265.959229,46.007046   C265.950317,48.638615 266.241272,50.856796 265.812103,52.925591   C265.581635,54.036407 264.114166,54.890602 263.204865,55.860600   C262.473358,54.823730 261.137177,53.803436 261.108215,52.747307   C260.917419,45.786652 260.933289,38.816750 261.076141,31.853846   C261.101746,30.606398 262.031158,29.377493 262.543304,28.140024   C263.666412,28.965816 264.789490,29.791611 265.584259,30.375986   C268.585999,29.634720 271.794861,28.746151 275.056244,28.140747   C275.544769,28.050062 276.739349,29.264156 276.770813,29.915096   C276.802063,30.562181 275.908020,31.633358 275.198212,31.879410   C265.984039,35.073490 265.974091,35.044750 265.959229,46.007046  z"/>
<path fill="#F4F6FC" opacity="1.000000" stroke="none" d=" M76.361801,11.661592   C77.056068,23.984274 79.706390,23.758799 64.214706,22.435516   C64.575111,18.928753 64.935852,15.418743 65.355087,11.339496   C68.922920,11.339496 72.484665,11.339496 76.361801,11.661592  z"/>
<path fill="#5AB5F9" opacity="1.000000" stroke="none" d=" M69.715401,30.074842   C70.559532,33.287582 70.945427,36.407333 71.384911,39.960346   C67.543495,39.960346 64.518661,39.960346 61.120171,39.960346   C61.120171,36.806873 61.120171,33.769230 61.120171,29.981852   C63.807671,29.981852 66.532417,29.981852 69.715401,30.074842  z"/>
<path fill="#141414" opacity="1.000000" stroke="none" d=" M24.092375,30.915651   C26.240612,31.742226 28.159519,32.341465 29.910490,33.260620   C30.787111,33.720795 31.947424,34.797836 31.905668,35.535072   C31.861078,36.322388 30.675121,37.295647 29.768131,37.732811   C27.703880,38.727776 25.505373,39.444202 23.361425,40.273827   C23.025673,39.962406 22.689920,39.650990 22.354170,39.339573   C23.418520,38.010777 24.482870,36.681980 25.525953,35.379734   C22.748096,33.402428 22.748096,33.402428 24.092375,30.915651  z"/>
<path fill="#233DFF" opacity="1.000000" stroke="none" d=" M62.334320,27.011473   C59.697178,27.792507 57.163017,28.098707 54.265846,28.448769   C54.265846,25.327408 54.265846,22.788567 54.265846,20.258953   C61.851856,18.947632 62.516449,19.465734 62.334320,27.011473  z"/>
<path fill="#47A1DE" opacity="1.000000" stroke="none" d=" M46.044365,65.388474   C41.645164,65.487373 37.245960,65.586266 32.409435,65.253799   C31.975183,64.053497 31.978254,63.284542 32.436676,62.411987   C37.267513,62.377544 41.643002,62.446697 46.019669,62.804817   C46.028687,63.858685 46.036526,64.623581 46.044365,65.388474  z"/>
<path fill="#2E95DA" opacity="1.000000" stroke="none" d=" M16.585926,23.598167   C16.104513,23.174431 16.077110,22.675909 16.046932,21.804644   C24.570948,21.431900 33.097740,21.431900 41.624531,21.431900   C41.634762,22.129061 41.644993,22.826220 41.655228,23.523380   C33.450130,23.523380 25.245031,23.523380 16.585926,23.598167  z"/>
<path fill="#212FA3" opacity="1.000000" stroke="none" d=" M55.681767,16.588451   C55.605652,14.886507 55.605652,13.571835 55.605652,11.814645   C57.561710,11.727361 59.305256,11.649559 61.536861,11.549979   C61.648174,13.570326 61.743542,15.301269 61.894382,18.039104   C59.565758,17.635580 57.661819,17.305651 55.681767,16.588451  z"/>
<path fill="#71BFFA" opacity="1.000000" stroke="none" d=" M44.783028,22.587761   C46.700237,22.193157 48.333855,22.095730 51.039810,21.934349   C50.578232,24.357859 50.589123,26.483046 49.672451,28.073683   C49.288662,28.739637 46.022591,28.816811 45.661549,28.211132   C44.779137,26.730824 44.826393,24.696348 44.783028,22.587761  z"/>
<path fill="#212FA3" opacity="1.000000" stroke="none" d=" M47.652840,30.104464   C49.490543,30.003830 50.932297,30.003830 52.638622,30.003830   C52.638622,32.045158 52.638622,33.758163 52.638622,35.756237   C50.801968,35.756237 49.073040,35.756237 46.774338,35.756237   C46.935249,33.905144 47.096069,32.055119 47.652840,30.104464  z"/>
<path fill="#F4F6FC" opacity="1.000000" stroke="none" d=" M52.379490,41.466766   C51.597805,37.561226 53.623047,36.582111 56.524071,37.218903   C57.311790,37.391808 58.464912,39.450661 58.203587,40.220978   C57.213486,43.139515 55.201832,43.981731 52.379490,41.466766  z"/>
<path fill="#4359FF" opacity="1.000000" stroke="none" d=" M45.136097,38.329449   C46.632553,39.655060 47.721642,40.993916 48.810734,42.332771   C48.403099,42.686722 47.995468,43.040672 47.587837,43.394623   C46.199596,43.394623 44.811356,43.394623 42.188076,43.394623   C43.262600,41.258003 43.995667,39.800346 45.136097,38.329449  z"/>
<path fill="#2E95DA" opacity="1.000000" stroke="none" d=" M31.981325,62.515587   C31.978254,63.284542 31.975183,64.053497 31.963173,65.108063   C31.221012,65.465721 30.487791,65.537758 29.399395,65.496002   C29.245615,64.573097 29.447012,63.763985 30.142185,62.682281   C31.084417,62.444988 31.532871,62.480286 31.981325,62.515587  z"/>
<path fill="#2E95DA" opacity="1.000000" stroke="none" d=" M46.400295,65.499321   C46.036526,64.623581 46.028687,63.858685 46.354290,62.751122   C47.136562,62.444839 47.585388,62.481224 48.034214,62.517609   C48.343403,63.300526 48.652596,64.083443 48.957924,65.124123   C48.221447,65.457977 47.488834,65.534073 46.400295,65.499321  z"/>
<path fill="#2E95DA" opacity="1.000000" stroke="none" d=" M69.195831,65.176910   C69.158287,64.978676 69.405525,64.753563 69.790115,64.660614   C69.778526,64.911873 69.629570,65.030952 69.195831,65.176910  z"/>
<path fill="#F4F6FC" opacity="1.000000" stroke="none" d=" M48.049473,62.060207   C47.585388,62.481224 47.136562,62.444839 46.353111,62.462151   C41.643002,62.446697 37.267513,62.377544 32.436676,62.411987   C31.532871,62.480286 31.084417,62.444988 30.303661,62.475243   C30.517683,61.704098 31.043396,60.158195 31.613554,60.141632   C36.684956,59.994251 41.765141,60.083515 46.839455,60.222576   C47.260170,60.234108 47.656872,61.122059 48.049473,62.060207  z"/>
<path fill="#FEFEFE" opacity="1.000000" stroke="none" d=" M294.119263,40.344788   C295.612549,38.223595 296.739044,35.985317 298.555176,34.862286   C301.972778,32.748970 307.065765,34.344627 308.602051,37.479923   C310.281433,40.907215 308.838715,46.446835 305.843018,48.073868   C302.147888,50.080776 297.356873,49.001335 295.334717,45.441513   C294.557037,44.072506 294.467072,42.312805 294.119263,40.344788  z"/>
<path fill="#FBFBFB" opacity="1.000000" stroke="none" d=" M409.062805,33.075600   C411.709686,34.379951 413.969940,35.679504 416.230164,36.979057   C415.977234,37.518738 415.724274,38.058418 415.471344,38.598099   C411.196655,38.598099 406.921936,38.598099 402.647247,38.598099   C402.388153,38.152592 402.129059,37.707081 401.869965,37.261574   C404.138702,35.864647 406.407440,34.467720 409.062805,33.075600  z"/>
<path fill="#FEFEFE" opacity="1.000000" stroke="none" d=" M342.479736,48.698193   C341.854980,49.056305 341.549866,49.340584 341.264160,49.322277   C338.944641,49.173668 336.607056,49.086315 334.332550,48.667637   C333.939880,48.595360 333.526642,46.318085 333.616272,46.281902   C335.759949,45.416779 337.932312,44.536549 340.184265,44.058685   C341.530914,43.772923 343.021362,44.164768 345.271484,44.302483   C344.211029,46.102875 343.509705,47.293507 342.479736,48.698193  z"/>
<path fill="#FBFBFB" opacity="1.000000" stroke="none" d=" M235.303970,31.133888   C240.909561,31.262516 244.359070,33.677765 245.871857,39.873447   C240.000565,39.873447 234.367599,39.952793 228.748917,39.706379   C228.346832,39.688747 227.371689,36.517193 227.818283,36.123859   C229.966248,34.232128 232.511093,32.791019 235.303970,31.133888  z"/>
<path fill="#FEFEFE" opacity="1.000000" stroke="none" d=" M141.215179,47.428528   C137.829468,37.922421 141.124542,32.100250 149.400131,31.914793   C154.647202,31.797205 157.698288,34.021561 159.240921,39.066235   C160.760162,44.034454 158.869202,47.613846 155.068207,50.186283   C151.152603,52.836296 146.941986,52.553040 143.107544,49.585270   C142.462662,49.086143 141.974670,48.384281 141.215179,47.428528  z"/>
</svg>